<?xml version="1.0" standalone="no"?>
<!DOCTYPE svg PUBLIC "-//W3C//DTD SVG 1.1//EN" "http://www.w3.org/Graphics/SVG/1.1/DTD/svg11.dtd" >
<svg xmlns="http://www.w3.org/2000/svg" xmlns:xlink="http://www.w3.org/1999/xlink" version="1.1">
<metadata>
Created by FontForge 20170910 at Wed Nov  3 12:54:28 2004
 By Jimmy Wärting
Digitized Data (c) 1990 The Monotype Corporation.  All rights reserved. 
</metadata>
<defs>
<font id="ArialMTStd-Light" horiz-adv-x="556" >
  <font-face 
    font-family="Arial MT Std"
    font-weight="300"
    font-stretch="normal"
    units-per-em="1000"
    panose-1="2 11 3 2 3 4 3 2 2 4"
    ascent="726"
    descent="-274"
    x-height="518"
    cap-height="716"
    bbox="-212 -230 1006 919"
    underline-thickness="50"
    underline-position="-100"
    stemh="50"
    stemv="60"
    unicode-range="U+0020-FB02"
  />
<missing-glyph horiz-adv-x="600" 
d="M62 0v665h475v-665h-475zM138 618l162 -243l161 243h-323zM110 575v-484c0 -1 161 242 161 242zM490 575l-162 -242l162 -243v485zM461 48l-161 242l-162 -242h323z" />
    <glyph glyph-name="fi" unicode="fi" horiz-adv-x="500" 
d="M15 518h83v55c0 71 10 95 28 115c24 27 59 40 98 40c19 0 34 -2 76 -12l-11 -49c-30 4 -40 5 -51 5c-74 0 -80 -45 -80 -108v-46h109v-45h-109v-473h-60v473h-83v45zM359 518h60v-518h-60v518zM359 716h60v-92h-60v92z" />
    <glyph glyph-name="fl" unicode="fl" horiz-adv-x="500" 
d="M15 518h83v55c0 71 10 95 28 115c24 27 59 40 98 40c19 0 34 -2 76 -12l-11 -49c-30 4 -40 5 -51 5c-74 0 -80 -45 -80 -108v-46h109v-45h-109v-473h-60v473h-83v45zM359 716h60v-716h-60v716z" />
    <glyph glyph-name=".notdef" horiz-adv-x="600" 
d="M62 0v665h475v-665h-475zM138 618l162 -243l161 243h-323zM110 575v-484c0 -1 161 242 161 242zM490 575l-162 -242l162 -243v485zM461 48l-161 242l-162 -242h323z" />
    <glyph glyph-name="exclam" unicode="!" horiz-adv-x="333" 
d="M129 716h74v-161l-17 -378h-40l-17 378v161zM124 95h85v-95h-85v95z" />
    <glyph glyph-name="quotedbl" unicode="&#x22;" horiz-adv-x="278" 
d="M37 716h72v-117l-13 -131h-44l-15 131v117zM169 716h72v-117l-13 -131h-44l-15 131v117z" />
    <glyph glyph-name="numbersign" unicode="#" 
d="M209 698h46l-42 -204h189l44 204h46l-42 -204h81v-45h-90l-39 -194h129v-45h-141l-44 -203h-44l44 203h-192l-44 -203h-44l44 203h-85v45h93l40 194h-133v45h142zM394 449h-191l-40 -194h191z" />
    <glyph glyph-name="dollar" unicode="$" 
d="M485 558l-62 -9c-23 104 -85 123 -127 129v-282c94 -28 208 -62 208 -200c0 -81 -43 -147 -96 -177c-42 -24 -83 -28 -112 -31v-89h-37v89c-187 7 -211 156 -219 206l60 8c10 -45 34 -152 159 -164v306l-22 6c-74 20 -180 52 -180 187c0 47 15 177 202 191v43h37v-43
c78 -7 156 -33 189 -170zM259 407v271c-141 -11 -142 -121 -142 -139c0 -96 81 -117 142 -132zM296 334v-296c142 20 148 125 148 152c0 100 -74 122 -148 144z" />
    <glyph glyph-name="percent" unicode="%" horiz-adv-x="889" 
d="M771 162c0 67 -18 145 -93 145s-92 -78 -92 -145c0 -64 17 -145 92 -145s93 81 93 145zM628 728h51l-418 -754h-51zM303 540c0 67 -18 145 -93 145s-92 -78 -92 -145c0 -64 17 -145 92 -145s93 81 93 145zM825 162c0 -129 -67 -188 -147 -188s-146 59 -146 188
c0 128 66 188 146 188s147 -60 147 -188zM357 540c0 -129 -67 -188 -147 -188s-146 59 -146 188c0 128 66 188 146 188s147 -60 147 -188z" />
    <glyph glyph-name="ampersand" unicode="&#x26;" horiz-adv-x="667" 
d="M529 332l62 -13c-25 -74 -37 -103 -71 -162c2 -3 12 -14 15 -17c43 -46 52 -55 103 -99l-42 -53c-38 30 -89 82 -114 111c-31 -42 -83 -111 -198 -111c-144 0 -228 107 -228 209c0 114 91 167 168 210c-71 92 -79 131 -79 159c0 73 56 162 165 162
c112 0 160 -87 160 -156c0 -79 -71 -135 -154 -177c2 -3 12 -15 14 -17c47 -59 57 -70 144 -172c24 45 27 53 55 126zM257 362c-73 -41 -135 -80 -135 -154c0 -79 66 -164 157 -164s142 77 159 102c-38 39 -145 167 -181 216zM281 440c64 33 124 70 124 134
c0 56 -42 98 -94 98c-56 0 -101 -45 -101 -97c0 -40 24 -72 59 -119c4 -5 11 -14 12 -16z" />
    <glyph glyph-name="quoteright" unicode="&#x2019;" horiz-adv-x="222" 
d="M69 716h85v-95c0 -50 -9 -93 -64 -133l-26 35c36 28 43 43 44 98h-39v95z" />
    <glyph glyph-name="parenleft" unicode="(" horiz-adv-x="333" 
d="M246 728h44c-91 -144 -150 -307 -150 -477c0 -166 59 -325 153 -461h-47c-72 98 -170 252 -170 465c0 148 40 286 170 473z" />
    <glyph glyph-name="parenright" unicode=")" horiz-adv-x="333" 
d="M87 -210h-44c91 144 150 307 150 477c0 166 -59 325 -153 461h47c72 -98 170 -252 170 -465c0 -148 -40 -286 -170 -473z" />
    <glyph glyph-name="asterisk" unicode="*" horiz-adv-x="389" 
d="M166 728h56l-4 -67l-5 -66l59 27l60 24l17 -51l-62 -17l-61 -15l41 -50l43 -50l-43 -32l-37 54l-35 57l-34 -57l-34 -54l-44 32l40 50l43 50l-64 15l-62 17l18 51l59 -24l60 -27l-5 66z" />
    <glyph glyph-name="plus" unicode="+" horiz-adv-x="660" 
d="M307 614h46v-239h239v-46h-239v-239h-46v239h-239v46h239v239z" />
    <glyph glyph-name="comma" unicode="," horiz-adv-x="278" 
d="M97 95h85v-95c0 -50 -9 -93 -64 -133l-26 35c36 28 43 43 44 98h-39v95z" />
    <glyph glyph-name="hyphen" unicode="-" horiz-adv-x="333" 
d="M36 290h261v-63h-261v63z" />
    <glyph glyph-name="period" unicode="." horiz-adv-x="278" 
d="M96 95h86v-95h-86v95z" />
    <glyph glyph-name="slash" unicode="/" horiz-adv-x="278" 
d="M232 716h46l-231 -734h-47z" />
    <glyph glyph-name="zero" unicode="0" 
d="M504 351c0 -131 -11 -363 -226 -363c-202 0 -227 208 -227 350c0 201 35 261 68 304c50 65 110 74 159 74c219 0 226 -248 226 -365zM440 352c0 86 -7 165 -31 222s-64 92 -131 92c-78 0 -119 -46 -140 -110c-22 -63 -23 -143 -23 -209c0 -143 15 -191 39 -237
c32 -62 80 -72 126 -72c70 0 110 43 132 102c23 60 28 138 28 212z" />
    <glyph glyph-name="one" unicode="1" 
d="M316 716h41v-716h-60v598c-74 -70 -131 -95 -182 -115v54c143 78 175 128 201 179z" />
    <glyph glyph-name="two" unicode="2" 
d="M500 0h-462c12 103 69 165 202 268c141 110 195 161 195 248c0 71 -48 150 -156 150c-135 0 -154 -113 -161 -156l-64 8c19 172 159 198 228 198c139 0 218 -92 218 -198c0 -120 -79 -182 -227 -295c-114 -87 -133 -124 -155 -165h382v-58z" />
    <glyph glyph-name="three" unicode="3" 
d="M50 181l59 9c10 -41 34 -152 164 -152c111 0 166 89 166 170c0 88 -61 149 -158 149c-12 0 -24 0 -64 -9l7 54c31 0 66 0 102 16c44 20 81 59 81 120c0 75 -58 128 -135 128c-115 0 -143 -106 -152 -141l-61 11c27 111 95 180 212 180c111 0 200 -75 200 -182
c0 -101 -74 -135 -105 -149v-2c76 -15 140 -63 140 -173c0 -129 -93 -222 -233 -222c-183 0 -212 140 -223 193z" />
    <glyph glyph-name="four" unicode="4" 
d="M351 178h-331v55l343 483h48v-484h98v-54h-98v-178h-60v178zM79 232h272v384h-2z" />
    <glyph glyph-name="five" unicode="5" 
d="M134 706h344v-54h-299l-45 -246c28 19 79 55 157 55c125 0 219 -102 219 -226c0 -111 -77 -247 -242 -247c-170 0 -206 144 -217 189l62 7c14 -67 55 -146 165 -146c100 0 168 86 168 191c0 104 -68 178 -164 178c-85 0 -132 -47 -165 -79l-51 7z" />
    <glyph glyph-name="six" unicode="6" 
d="M492 551l-61 -7c-9 37 -32 122 -134 122c-83 0 -129 -57 -154 -110c-27 -58 -30 -147 -33 -204l2 -2c72 99 155 102 188 102c128 0 208 -100 208 -221c0 -118 -75 -243 -224 -243c-85 0 -143 43 -173 84c-33 46 -65 107 -65 261c0 76 0 383 253 383
c157 0 183 -120 193 -165zM444 224c0 129 -90 174 -155 174c-72 0 -167 -51 -167 -167c0 -96 64 -193 164 -193c94 0 158 87 158 186z" />
    <glyph glyph-name="seven" unicode="7" 
d="M56 706h452v-40c-91 -104 -252 -303 -279 -666h-66c14 217 64 387 247 624l21 28h-375v54z" />
    <glyph glyph-name="eight" unicode="8" 
d="M378 385c39 -14 131 -46 131 -179c0 -124 -92 -218 -231 -218s-231 94 -231 218c0 133 92 165 131 179c-29 13 -102 46 -102 147c0 98 78 184 202 184s202 -86 202 -184c0 -101 -73 -134 -102 -147zM277 357c-104 0 -166 -62 -166 -157c0 -105 74 -162 166 -162
c88 0 168 53 168 162c0 95 -63 157 -168 157zM278 666c-99 0 -140 -76 -140 -135c0 -65 52 -124 140 -124c87 0 140 59 140 124c0 59 -42 135 -140 135z" />
    <glyph glyph-name="nine" unicode="9" 
d="M64 153l61 7c9 -37 32 -122 134 -122c83 0 129 57 154 110c27 58 30 147 33 204l-2 2c-72 -99 -155 -102 -188 -102c-128 0 -208 100 -208 221c0 118 75 243 224 243c85 0 143 -43 173 -84c33 -46 65 -107 65 -261c0 -76 0 -383 -253 -383c-157 0 -183 120 -193 165z
M112 480c0 -129 90 -174 155 -174c72 0 167 51 167 167c0 96 -64 193 -164 193c-94 0 -158 -87 -158 -186z" />
    <glyph glyph-name="colon" unicode=":" horiz-adv-x="278" 
d="M97 95h85v-95h-85v95zM97 518h85v-95h-85v95z" />
    <glyph glyph-name="semicolon" unicode=";" horiz-adv-x="278" 
d="M97 95h85v-95c0 -50 -9 -93 -64 -133l-26 35c36 28 43 43 44 98h-39v95zM97 518h85v-95h-85v95z" />
    <glyph glyph-name="less" unicode="&#x3c;" horiz-adv-x="660" 
d="M592 109l-524 220v41l524 222v-49l-464 -193l464 -192v-49z" />
    <glyph glyph-name="equal" unicode="=" horiz-adv-x="660" 
d="M68 492h524v-46h-524v46zM68 254h524v-46h-524v46z" />
    <glyph glyph-name="greater" unicode="&#x3e;" horiz-adv-x="660" 
d="M68 592l524 -221v-40l-524 -222v49l464 193l-464 192v49z" />
    <glyph glyph-name="question" unicode="?" horiz-adv-x="500" 
d="M273 177h-62c-2 95 4 137 94 219c58 52 87 85 87 141c0 74 -60 135 -137 135c-110 0 -135 -101 -146 -146l-66 11c10 45 45 191 218 191c153 0 199 -117 199 -189c0 -63 -27 -113 -103 -184c-73 -68 -84 -90 -84 -178zM204 94h84v-94h-84v94z" />
    <glyph glyph-name="at" unicode="@" horiz-adv-x="800" 
d="M558 530h61l-83 -392l-2 -14c-3 -14 -4 -21 -4 -25c0 -12 10 -20 24 -20c64 0 192 104 192 282c0 77 -33 315 -326 315c-239 0 -382 -180 -382 -391s140 -379 386 -379c207 0 291 106 328 152h50c-48 -73 -151 -192 -378 -192c-261 0 -426 174 -426 420
c0 215 136 430 425 430c291 0 363 -227 363 -355c0 -211 -158 -326 -252 -326c-33 0 -59 12 -59 52c0 6 1 20 4 36l-2 2c-62 -75 -123 -90 -165 -90c-101 0 -169 92 -169 206c0 143 100 301 249 301c97 0 136 -70 149 -94zM518 360c0 84 -54 139 -125 139
c-128 0 -188 -165 -188 -261c0 -83 46 -157 125 -157c112 0 188 171 188 279z" />
    <glyph glyph-name="A" unicode="A" horiz-adv-x="667" 
d="M497 226h-334l-90 -226h-73l291 716h71l305 -716h-77zM184 286h290l-148 359z" />
    <glyph glyph-name="B" unicode="B" horiz-adv-x="667" 
d="M86 0v716h270c219 0 222 -162 222 -181c0 -101 -72 -141 -103 -158c42 -15 137 -47 137 -176c0 -90 -58 -201 -226 -201h-300zM382 341h-228v-281h225c131 0 163 82 163 141c0 74 -51 140 -160 140zM154 655v-254h211c116 0 145 77 145 130c0 123 -118 124 -180 124h-176
z" />
    <glyph glyph-name="C" unicode="C" horiz-adv-x="722" 
d="M670 518l-65 -17c-13 36 -59 171 -215 171c-110 0 -264 -78 -264 -316c0 -196 103 -312 253 -312c180 0 225 152 239 198l62 -17c-20 -66 -72 -237 -297 -237c-249 0 -327 211 -327 369c0 250 161 371 329 371c208 0 266 -159 285 -210z" />
    <glyph glyph-name="D" unicode="D" horiz-adv-x="722" 
d="M89 0v716h275c4 0 91 -1 156 -38c124 -70 146 -231 146 -316c0 -79 -14 -250 -150 -327c-42 -24 -124 -35 -152 -35h-275zM157 656v-596h168c29 0 92 0 136 20c106 50 135 166 135 287c0 57 -11 211 -133 267c-44 21 -96 22 -138 22h-168z" />
    <glyph glyph-name="E" unicode="E" horiz-adv-x="611" 
d="M156 398h361v-60h-361v-278h404v-60h-472v716h458v-60h-390v-258z" />
    <glyph glyph-name="F" unicode="F" 
d="M89 716h423v-60h-355v-259h303v-60h-303v-337h-68v716z" />
    <glyph glyph-name="G" unicode="G" horiz-adv-x="778" 
d="M419 357h294v-266c-74 -54 -158 -103 -298 -103c-185 0 -359 110 -359 361c0 256 158 379 356 379c231 0 276 -153 291 -204l-66 -20c-13 38 -55 168 -229 168c-179 0 -282 -131 -282 -316c0 -241 167 -312 283 -312c86 0 168 28 237 79v174h-227v60z" />
    <glyph glyph-name="H" unicode="H" horiz-adv-x="722" 
d="M155 407h412v309h68v-716h-68v347h-412v-347h-68v716h68v-309z" />
    <glyph glyph-name="I" unicode="I" horiz-adv-x="278" 
d="M105 716h68v-716h-68v716z" />
    <glyph glyph-name="J" unicode="J" horiz-adv-x="500" 
d="M344 716h68v-512c0 -196 -118 -216 -201 -216c-170 0 -183 141 -186 209l61 7c3 -45 11 -160 132 -160c109 0 126 89 126 160v512z" />
    <glyph glyph-name="K" unicode="K" horiz-adv-x="667" 
d="M88 716h68v-374l404 374h92l-322 -293l335 -423h-89l-291 382l-129 -117v-265h-68v716z" />
    <glyph glyph-name="L" unicode="L" 
d="M88 716h68v-656h361v-60h-429v716z" />
    <glyph glyph-name="M" unicode="M" horiz-adv-x="833" 
d="M89 716h101l225 -620l228 620h101v-716h-62v647h-3l-236 -647h-57l-232 647h-3v-647h-62v716z" />
    <glyph glyph-name="N" unicode="N" horiz-adv-x="722" 
d="M87 716h68l415 -619h3v619h62v-716h-72l-412 615h-2v-615h-62v716z" />
    <glyph glyph-name="O" unicode="O" horiz-adv-x="778" 
d="M389 728c267 0 333 -226 333 -370c0 -152 -71 -370 -333 -370c-266 0 -333 225 -333 370c0 150 70 370 333 370zM389 672c-24 0 -121 -6 -189 -84c-55 -63 -74 -147 -74 -230c0 -247 161 -314 263 -314c101 0 263 67 263 314c0 225 -139 314 -263 314z" />
    <glyph glyph-name="P" unicode="P" horiz-adv-x="611" 
d="M88 716h249c10 0 92 0 142 -32c51 -33 89 -95 89 -173c0 -88 -52 -208 -231 -208h-181v-303h-68v716zM318 656h-162v-293h162c76 0 180 22 180 147c0 145 -131 146 -180 146z" />
    <glyph glyph-name="Q" unicode="Q" horiz-adv-x="778" 
d="M574 34l-2 2c-38 -23 -92 -48 -183 -48c-262 0 -333 218 -333 370c0 145 67 370 333 370c262 0 333 -219 333 -370c0 -106 -31 -212 -106 -287c28 -19 68 -46 122 -71l-19 -47c-61 21 -116 60 -145 81zM395 138l15 50c25 -5 73 -16 138 -68l10 -8c1 0 2 -2 3 -2
c66 63 91 156 91 248c0 246 -161 314 -263 314s-263 -68 -263 -314c0 -247 162 -314 263 -314c32 0 77 6 125 33c-28 21 -65 44 -119 61z" />
    <glyph glyph-name="R" unicode="R" horiz-adv-x="667" 
d="M88 716h302c59 0 110 -13 145 -39c45 -34 71 -92 71 -152c0 -105 -65 -177 -208 -190v-2c54 -26 80 -43 132 -123l136 -210h-87l-105 165c-94 147 -132 164 -214 164h-104v-329h-68v716zM348 656h-192v-267h189c43 0 191 -1 191 135c0 126 -127 132 -188 132z" />
    <glyph glyph-name="S" unicode="S" horiz-adv-x="611" 
d="M541 527l-66 -3c-2 33 -13 148 -169 148c-103 0 -167 -56 -167 -129c0 -94 90 -120 168 -136c112 -23 255 -54 255 -209c0 -80 -53 -210 -253 -210c-136 0 -249 51 -265 227l67 6c3 -27 7 -61 29 -96c44 -70 121 -81 164 -81c103 0 192 51 192 150
c0 108 -122 130 -186 142c-95 18 -237 48 -237 201c0 102 77 191 228 191c74 0 158 -17 204 -85c31 -45 34 -84 36 -116z" />
    <glyph glyph-name="T" unicode="T" 
d="M25 716h506v-63h-219v-653h-68v653h-219v63z" />
    <glyph glyph-name="U" unicode="U" horiz-adv-x="722" 
d="M87 716h68v-459c0 -64 3 -213 207 -213c156 0 205 94 205 212v460h68v-453c0 -174 -86 -275 -272 -275c-196 0 -276 97 -276 275v453z" />
    <glyph glyph-name="V" unicode="V" horiz-adv-x="611" 
d="M6 716h72l225 -643h2l233 643h67l-267 -716h-70z" />
    <glyph glyph-name="W" unicode="W" horiz-adv-x="889" 
d="M12 716h69l155 -620h2l165 620h83l165 -616h2l159 616h65l-192 -716h-67l-171 640h-2l-175 -640h-67z" />
    <glyph glyph-name="X" unicode="X" horiz-adv-x="611" 
d="M43 716h80l188 -287l205 287h71l-238 -335l258 -381h-82l-214 319l-226 -319h-81l270 374z" />
    <glyph glyph-name="Y" unicode="Y" horiz-adv-x="611" 
d="M6 716h80l219 -344l223 344h77l-270 -407v-309h-68v309z" />
    <glyph glyph-name="Z" unicode="Z" horiz-adv-x="611" 
d="M64 716h506v-58l-468 -598h478v-60h-557v63l463 593h-422v60z" />
    <glyph glyph-name="bracketleft" unicode="[" horiz-adv-x="333" 
d="M77 716h230v-50h-170v-814h170v-50h-230v914z" />
    <glyph glyph-name="backslash" unicode="\" horiz-adv-x="278" 
d="M0 716h46l232 -734h-47z" />
    <glyph glyph-name="bracketright" unicode="]" horiz-adv-x="333" 
d="M256 -198h-230v50h170v814h-170v50h230v-914z" />
    <glyph glyph-name="asciicircum" unicode="^" horiz-adv-x="660" 
d="M330 728l219 -262l-32 -27l-187 226l-188 -226l-31 27z" />
    <glyph glyph-name="underscore" unicode="_" horiz-adv-x="500" 
d="M-6 -125v50h512v-50h-512z" />
    <glyph glyph-name="quoteleft" unicode="&#x2018;" horiz-adv-x="222" 
d="M153 488h-85v95c0 50 9 93 64 133l26 -35c-36 -28 -43 -43 -44 -98h39v-95z" />
    <glyph glyph-name="a" unicode="a" 
d="M121 368l-62 9c20 108 87 153 223 153c196 0 197 -98 197 -220c0 -11 -2 -124 -2 -146c0 -92 9 -116 32 -164h-67c-12 31 -15 44 -19 79c-23 -25 -84 -91 -211 -91c-119 0 -165 75 -165 144c0 34 9 79 58 116c19 15 43 31 158 47c52 7 107 14 155 31v18
c0 64 0 139 -136 139c-135 0 -152 -77 -161 -115zM418 245v34c-43 -16 -115 -30 -165 -39c-68 -12 -142 -25 -142 -103c0 -59 54 -99 113 -99c42 0 97 19 140 54c37 30 54 71 54 153z" />
    <glyph glyph-name="b" unicode="b" horiz-adv-x="611" 
d="M139 79v-79h-60v716h60v-282h2c24 32 76 96 194 96c166 0 230 -139 230 -267c0 -74 -27 -275 -236 -275c-113 0 -160 55 -188 91h-2zM501 258c0 153 -84 222 -173 222c-45 0 -86 -15 -119 -42c-36 -30 -70 -77 -70 -187c0 -148 86 -213 185 -213c93 0 177 76 177 220z
" />
    <glyph glyph-name="c" unicode="c" 
d="M504 372l-64 -10c-22 75 -82 118 -160 118c-64 0 -170 -40 -170 -214c0 -131 60 -228 173 -228c118 0 153 99 168 139l60 -9c-12 -50 -50 -180 -231 -180c-169 0 -234 131 -234 272c0 105 41 270 237 270c91 0 178 -27 221 -158z" />
    <glyph glyph-name="d" unicode="d" horiz-adv-x="611" 
d="M472 434v282h60v-716h-60v79c-29 -32 -82 -91 -195 -91c-174 0 -231 157 -231 275c0 115 54 267 232 267c121 0 169 -63 192 -96h2zM110 258c0 -144 84 -220 177 -220c34 0 82 8 124 46c26 23 61 66 61 177c0 174 -115 219 -189 219c-89 0 -173 -69 -173 -222z" />
    <glyph glyph-name="e" unicode="e" 
d="M511 252h-399c2 -125 59 -214 174 -214c114 0 147 93 159 126l60 -10c-18 -50 -59 -166 -222 -166c-149 0 -235 105 -235 271c0 163 84 271 236 271c225 0 226 -226 227 -278zM113 302h334c-12 138 -91 178 -165 178c-31 0 -149 -8 -169 -178z" />
    <glyph glyph-name="f" unicode="f" horiz-adv-x="278" 
d="M15 518h83v55c0 71 10 95 28 115c24 27 59 40 98 40c19 0 34 -2 76 -12l-11 -49c-30 4 -40 5 -51 5c-74 0 -80 -45 -80 -108v-46h109v-45h-109v-473h-60v473h-83v45z" />
    <glyph glyph-name="g" unicode="g" horiz-adv-x="611" 
d="M471 518h61v-477c0 -126 -36 -251 -251 -251c-112 0 -204 34 -212 153l59 -12c7 -31 19 -91 144 -91c144 0 199 72 199 189v50h-2c-27 -35 -73 -91 -191 -91c-175 0 -230 158 -230 269c0 95 42 273 230 273c124 0 172 -68 191 -99h2v87zM472 253c0 152 -82 227 -182 227
c-121 0 -178 -103 -178 -220c0 -122 60 -222 177 -222c71 0 183 42 183 215z" />
    <glyph glyph-name="h" unicode="h" 
d="M80 716h60v-274h2c28 38 67 88 165 88c78 0 120 -36 137 -55c38 -43 37 -106 37 -137v-338h-60v322c0 42 -2 80 -20 106c-21 31 -58 49 -100 49c-56 0 -116 -34 -143 -92c-15 -32 -18 -72 -18 -160v-225h-60v716z" />
    <glyph glyph-name="i" unicode="i" horiz-adv-x="222" 
d="M81 518h60v-518h-60v518zM81 716h60v-92h-60v92z" />
    <glyph glyph-name="j" unicode="j" horiz-adv-x="222" 
d="M81 518h60v-559c0 -85 -4 -126 -44 -151c-24 -15 -51 -18 -64 -18c-11 0 -23 1 -62 11l12 53c15 -4 23 -6 38 -6c42 0 60 14 60 103v567zM81 716h60v-92h-60v92z" />
    <glyph glyph-name="k" unicode="k" horiz-adv-x="500" 
d="M80 716h60v-438l254 240h85l-216 -193l232 -325h-79l-197 284l-79 -70v-214h-60v716z" />
    <glyph glyph-name="l" unicode="l" horiz-adv-x="222" 
d="M81 716h60v-716h-60v716z" />
    <glyph glyph-name="m" unicode="m" horiz-adv-x="833" 
d="M80 518h60v-74h2c19 29 62 86 156 86c99 0 126 -60 138 -86c27 34 70 86 162 86c57 0 96 -24 117 -47c18 -19 39 -57 39 -130v-353h-60v322c0 64 -2 156 -109 156c-122 0 -138 -121 -138 -223v-255h-60v328c0 54 2 148 -101 148c-105 0 -146 -97 -146 -200v-276h-60v518z
" />
    <glyph glyph-name="n" unicode="n" 
d="M80 518h60v-76h2c28 38 67 88 165 88c78 0 120 -36 137 -55c38 -43 37 -106 37 -137v-338h-60v322c0 42 -2 80 -20 106c-21 31 -58 49 -100 49c-56 0 -116 -34 -143 -92c-15 -32 -18 -72 -18 -160v-225h-60v518z" />
    <glyph glyph-name="o" unicode="o" 
d="M509 256c0 -153 -71 -268 -232 -268c-146 0 -232 112 -231 268c1 179 89 274 231 274c140 0 232 -95 232 -274zM445 256c0 142 -61 224 -166 224c-114 0 -169 -96 -169 -224c0 -142 71 -218 170 -218s165 79 165 218z" />
    <glyph glyph-name="p" unicode="p" horiz-adv-x="611" 
d="M139 79v-277h-60v716h60v-84h2c26 34 78 96 193 96c171 0 231 -144 231 -267c0 -74 -27 -275 -236 -275c-113 0 -160 55 -188 91h-2zM501 258c0 152 -83 222 -173 222c-48 0 -88 -17 -119 -42c-36 -29 -70 -77 -70 -187c0 -148 86 -213 185 -213c93 0 177 76 177 220z
" />
    <glyph glyph-name="q" unicode="q" horiz-adv-x="611" 
d="M472 79h-2c-28 -36 -75 -91 -188 -91c-209 0 -236 201 -236 275c0 123 60 267 231 267c115 0 167 -62 193 -96h2v84h60v-716h-60v277zM110 258c0 -144 84 -220 177 -220c99 0 185 65 185 213c0 110 -34 158 -70 187c-31 25 -71 42 -119 42c-90 0 -173 -70 -173 -222z" />
    <glyph glyph-name="r" unicode="r" horiz-adv-x="333" 
d="M79 518h54v-104h2c11 38 37 116 119 116c43 0 70 -17 92 -31l-23 -53c-33 14 -49 20 -70 20c-19 0 -62 -1 -92 -69c-9 -19 -14 -54 -18 -87c-3 -26 -4 -60 -4 -73v-237h-60v518z" />
    <glyph glyph-name="s" unicode="s" horiz-adv-x="500" 
d="M429 393l-59 -9c-14 46 -30 96 -132 96c-76 0 -121 -31 -121 -84c0 -48 26 -74 154 -101c105 -22 180 -57 180 -148c0 -84 -62 -159 -202 -159c-143 0 -192 68 -212 152l62 11c8 -29 30 -113 152 -113c88 0 136 46 136 100c0 51 -38 77 -152 101
c-110 23 -182 60 -182 146c0 51 35 145 184 145c102 0 165 -30 192 -137z" />
    <glyph glyph-name="t" unicode="t" horiz-adv-x="278" 
d="M154 690v-172h97v-45h-97v-340c0 -64 7 -91 58 -91c8 0 17 1 48 7l8 -49c-32 -6 -46 -8 -64 -8c-112 0 -110 75 -110 133v348h-72v45h72v133z" />
    <glyph glyph-name="u" unicode="u" 
d="M476 0h-60v77h-2c-28 -39 -67 -89 -165 -89c-78 0 -118 37 -135 55c-40 42 -39 107 -39 137v338h60v-321c0 -42 2 -81 20 -107c21 -30 58 -49 100 -49c56 0 116 35 143 93c14 31 18 72 18 160v224h60v-518z" />
    <glyph glyph-name="v" unicode="v" horiz-adv-x="500" 
d="M14 518h65l171 -443l171 443h65l-208 -518h-56z" />
    <glyph glyph-name="w" unicode="w" horiz-adv-x="722" 
d="M6 518h64l139 -442h2l122 442h56l123 -442h2l139 442h63l-174 -518h-62l-118 426h-2l-117 -426h-63z" />
    <glyph glyph-name="x" unicode="x" horiz-adv-x="500" 
d="M23 518h76l151 -198l151 198h76l-192 -242l207 -276h-76l-166 225l-166 -225h-76l207 270z" />
    <glyph glyph-name="y" unicode="y" horiz-adv-x="500" 
d="M17 518h67l170 -448l178 448h59l-245 -621c-31 -79 -69 -107 -120 -107c-12 0 -24 1 -58 9l-7 61c33 -7 44 -8 55 -8c40 0 53 14 70 57l36 91z" />
    <glyph glyph-name="z" unicode="z" horiz-adv-x="500" 
d="M41 518h420v-41l-360 -424h376v-53h-456v53l355 415h-335v50z" />
    <glyph glyph-name="braceleft" unicode="{" horiz-adv-x="333" 
d="M286 728v-55c-77 -2 -88 -15 -88 -162c0 -130 0 -206 -97 -252c97 -45 97 -128 97 -224c0 -177 0 -186 88 -190v-55c-121 -3 -143 69 -143 169c0 163 0 187 -16 220c-23 46 -53 47 -78 48v64c93 3 94 107 94 162c0 156 0 191 28 227c38 51 90 49 115 48z" />
    <glyph glyph-name="bar" unicode="|" horiz-adv-x="222" 
d="M86 716h50v-914h-50v914z" />
    <glyph glyph-name="braceright" unicode="}" horiz-adv-x="333" 
d="M47 -210v55c77 2 88 15 88 162c0 130 0 206 97 252c-97 45 -97 128 -97 224c0 177 0 186 -88 190v55c122 3 143 -70 143 -169c0 -163 0 -187 16 -220c23 -47 53 -47 78 -48v-64c-93 -3 -94 -107 -94 -162c0 -156 0 -191 -28 -227c-38 -51 -90 -49 -115 -48z" />
    <glyph glyph-name="asciitilde" unicode="~" horiz-adv-x="660" 
d="M591 403v-58c-46 -31 -85 -56 -136 -56c-41 0 -77 17 -130 41c-21 10 -80 37 -117 37c-42 0 -96 -30 -139 -65v54c58 43 98 58 137 58c45 0 76 -14 127 -39c76 -36 104 -39 122 -39c55 0 115 49 136 67z" />
    <glyph glyph-name="exclamdown" unicode="&#xa1;" horiz-adv-x="333" 
d="M204 -198h-74v161l17 378h40l17 -378v-161zM209 423h-85v95h85v-95z" />
    <glyph glyph-name="cent" unicode="&#xa2;" 
d="M366 458l-123 -416c7 -2 19 -4 39 -4c119 0 154 98 169 139l60 -9c-8 -36 -42 -180 -230 -180c-27 0 -45 3 -53 4l-54 -184l-43 12l55 184c-93 35 -140 143 -140 256c0 117 49 270 236 270c26 0 47 -2 59 -4l56 190l41 -15l-55 -185c21 -9 94 -39 121 -144l-64 -10
c-7 24 -19 65 -74 96zM202 58l123 415c-8 2 -23 7 -45 7c-56 0 -170 -33 -170 -214c0 -51 10 -158 92 -208z" />
    <glyph glyph-name="sterling" unicode="&#xa3;" 
d="M174 382h173v-50h-159c7 -26 11 -41 11 -65c0 -92 -49 -152 -87 -194l2 -2c14 3 52 12 91 12c26 0 74 -6 119 -20c40 -12 50 -14 69 -14c39 0 77 14 113 30l27 -59c-67 -29 -110 -32 -130 -32c-30 0 -69 9 -104 20c-69 22 -85 25 -114 25c-61 0 -98 -26 -126 -45l-30 61
c43 39 106 100 106 200c0 33 -7 62 -13 83h-93v50h78c-23 77 -29 108 -29 141c0 113 87 205 216 205c177 0 206 -146 212 -179l-61 -11c-19 88 -72 140 -150 140c-87 0 -151 -62 -151 -151c0 -40 7 -69 30 -145z" />
    <glyph glyph-name="fraction" unicode="&#x2044;" horiz-adv-x="167" 
d="M324 728h54l-533 -754h-57z" />
    <glyph glyph-name="yen" unicode="&#xa5;" 
d="M2 716h72l207 -356l204 356h69l-210 -356h179v-46h-206l-6 -10v-66h212v-46h-212v-192h-64v192h-214v46h214v66l-5 10h-209v46h181z" />
    <glyph glyph-name="florin" unicode="&#x192;" 
d="M359 518h109l-11 -45h-107l-121 -556c-14 -66 -37 -127 -135 -127c-36 0 -64 8 -87 15l11 49c20 -7 42 -10 71 -10c14 0 58 -1 73 48c0 1 14 61 24 108l102 473h-82l9 45h82l13 52l6 28c11 49 30 130 134 130c25 0 44 -4 89 -16l-10 -48c-24 6 -49 10 -75 10
c-53 0 -67 -30 -83 -102z" />
    <glyph glyph-name="section" unicode="&#xa7;" 
d="M465 565l-64 -8c-6 27 -25 117 -131 117c-91 0 -117 -64 -117 -94c0 -38 30 -70 57 -87l21 -13l197 -129c55 -36 80 -73 80 -128c0 -91 -80 -124 -123 -142c33 -21 87 -57 87 -137c0 -73 -62 -154 -192 -154c-160 0 -191 121 -204 173l65 10c9 -42 27 -128 140 -128
c114 0 131 72 131 95c0 47 -36 78 -79 106l-192 125c-55 36 -93 85 -93 146c0 89 84 122 118 135c-25 19 -73 53 -73 128c0 73 58 148 178 148c83 0 171 -31 194 -163zM379 312l-169 109c-32 -11 -102 -36 -102 -100c0 -53 53 -93 71 -105l158 -101c36 10 111 31 111 101
c0 50 -38 76 -69 96z" />
    <glyph glyph-name="currency" unicode="&#xa4;" 
d="M477 582l31 -31l-63 -63c31 -38 48 -87 48 -136c0 -50 -17 -98 -48 -136l63 -63l-31 -31l-63 63c-58 -44 -113 -49 -138 -49c-73 0 -117 34 -135 48l-62 -62l-31 31l63 63c-20 26 -49 63 -49 136c0 70 32 112 49 136l-63 63l31 31l64 -64c31 22 69 49 136 49
c68 0 109 -30 134 -49zM277 521c-94 0 -169 -75 -169 -169s75 -170 169 -170s170 76 170 170s-76 169 -170 169z" />
    <glyph glyph-name="quotesingle" unicode="'" horiz-adv-x="222" 
d="M75 716h72v-117l-13 -131h-44l-15 131v117z" />
    <glyph glyph-name="quotedblleft" unicode="&#x201c;" horiz-adv-x="389" 
d="M319 488h-85v95c0 50 9 93 64 133l26 -35c-36 -28 -43 -43 -44 -98h39v-95zM150 488h-85v95c0 50 9 93 64 133l26 -35c-36 -28 -43 -43 -44 -98h39v-95z" />
    <glyph glyph-name="guillemotleft" unicode="&#xab;" 
d="M429 478h52l-127 -219l127 -224h-52l-145 224zM222 478h52l-127 -219l127 -224h-52l-145 224z" />
    <glyph glyph-name="guilsinglleft" unicode="&#x2039;" horiz-adv-x="389" 
d="M241 478h52l-127 -219l127 -224h-52l-145 224z" />
    <glyph glyph-name="guilsinglright" unicode="&#x203a;" horiz-adv-x="389" 
d="M148 35h-52l127 220l-127 223h52l145 -223z" />
    <glyph glyph-name="endash" unicode="&#x2013;" horiz-adv-x="500" 
d="M-6 273h512v-46h-512v46z" />
    <glyph glyph-name="dagger" unicode="&#x2020;" 
d="M246 706h63v-217h203v-54h-203v-605h-63v605h-202v54h202v217z" />
    <glyph glyph-name="daggerdbl" unicode="&#x2021;" 
d="M246 706h63v-194h203v-54h-203v-380h203v-54h-203v-194h-63v194h-202v54h202v380h-202v54h202v194z" />
    <glyph glyph-name="periodcentered" unicode="&#xb7;" horiz-adv-x="278" 
d="M91 399h96v-95h-96v95z" />
    <glyph glyph-name="paragraph" unicode="&#xb6;" horiz-adv-x="650" 
d="M621 716v-68h-96v-846h-64v846h-128v-846h-64v503c-185 -1 -220 138 -220 206c0 115 80 205 234 205h338z" />
    <glyph glyph-name="bullet" unicode="&#x2022;" horiz-adv-x="500" 
d="M372 350c0 -68 -55 -122 -122 -122s-122 54 -122 122c0 67 55 122 122 122s122 -55 122 -122z" />
    <glyph glyph-name="quotesinglbase" unicode="&#x201a;" horiz-adv-x="222" 
d="M69 95h85v-95c0 -50 -9 -93 -64 -133l-26 35c36 28 43 43 44 98h-39v95z" />
    <glyph glyph-name="quotedblbase" unicode="&#x201e;" horiz-adv-x="389" 
d="M70 95h85v-95c0 -50 -9 -93 -64 -133l-26 35c36 28 43 43 44 98h-39v95zM239 95h85v-95c0 -50 -9 -93 -64 -133l-26 35c36 28 43 43 44 98h-39v95z" />
    <glyph glyph-name="quotedblright" unicode="&#x201d;" horiz-adv-x="389" 
d="M70 716h84v-96c0 -86 -36 -115 -64 -133l-25 37c36 23 45 51 45 96h-40v96zM240 716h84v-96c0 -86 -37 -115 -64 -133l-25 37c36 23 45 51 45 96h-40v96z" />
    <glyph glyph-name="guillemotright" unicode="&#xbb;" 
d="M127 35h-52l127 219l-127 224h52l145 -224zM334 35h-52l127 219l-127 224h52l145 -224z" />
    <glyph glyph-name="ellipsis" unicode="&#x2026;" horiz-adv-x="1000" 
d="M123 95h85v-95h-85v95zM791 95h85v-95h-85v95zM457 95h85v-95h-85v95z" />
    <glyph glyph-name="perthousand" unicode="&#x2030;" horiz-adv-x="1000" 
d="M602 162c0 67 -18 145 -93 145s-92 -78 -92 -145c0 -64 17 -145 92 -145s93 81 93 145zM467 728h50l-311 -754h-50zM256 540c0 67 -18 145 -93 145s-92 -78 -92 -145c0 -64 17 -145 92 -145s93 81 93 145zM656 162c0 -129 -67 -188 -147 -188s-146 59 -146 188
c0 128 66 188 146 188s147 -60 147 -188zM310 540c0 -129 -67 -188 -147 -188s-146 59 -146 188c0 128 66 188 146 188s147 -60 147 -188zM929 162c0 67 -18 145 -93 145s-92 -78 -92 -145c0 -64 17 -145 92 -145s93 81 93 145zM983 162c0 -129 -67 -188 -147 -188
s-146 59 -146 188c0 128 66 188 146 188s147 -60 147 -188z" />
    <glyph glyph-name="questiondown" unicode="&#xbf;" horiz-adv-x="500" 
d="M227 341h62c1 -95 -4 -137 -94 -219c-58 -52 -87 -86 -87 -142c0 -73 60 -134 137 -134c110 0 135 101 146 146l66 -11c-11 -46 -45 -191 -218 -191c-153 0 -199 116 -199 189c0 63 27 113 103 184c73 68 84 90 84 178zM296 424h-84v94h84v-94z" />
    <glyph glyph-name="grave" unicode="`" horiz-adv-x="333" 
d="M159 716l63 -129h-50l-110 129h97z" />
    <glyph glyph-name="acute" unicode="&#xb4;" horiz-adv-x="333" 
d="M174 716h97l-110 -129h-50z" />
    <glyph glyph-name="circumflex" unicode="&#x2c6;" horiz-adv-x="333" 
d="M126 716h81l96 -130h-67l-68 90l-68 -90h-70z" />
    <glyph glyph-name="tilde" unicode="&#x2dc;" horiz-adv-x="333" 
d="M267 694h46c-6 -82 -48 -92 -68 -92c-18 0 -30 3 -85 23c-20 8 -42 16 -63 16c-29 0 -32 -22 -34 -39h-43c3 43 15 92 64 92c24 0 102 -25 129 -34c2 -1 13 -5 20 -5c29 0 32 28 34 39z" />
    <glyph glyph-name="macron" unicode="&#xaf;" horiz-adv-x="333" 
d="M19 653h295v-54h-295v54z" />
    <glyph glyph-name="breve" unicode="&#x2d8;" horiz-adv-x="333" 
d="M30 706h53c1 -8 3 -25 14 -39c12 -15 33 -28 73 -28c68 0 77 44 82 67h51c-9 -77 -62 -115 -133 -115c-70 0 -128 34 -140 115z" />
    <glyph glyph-name="dotaccent" unicode="&#x2d9;" horiz-adv-x="333" 
d="M126 686h81v-94h-81v94z" />
    <glyph glyph-name="dieresis" unicode="&#xa8;" horiz-adv-x="333" 
d="M61 677h60v-85h-60v85zM212 677h60v-85h-60v85z" />
    <glyph glyph-name="ring" unicode="&#x2da;" horiz-adv-x="333" 
d="M254 651c0 -48 -39 -87 -88 -87c-48 0 -87 39 -87 87c0 49 39 88 87 88c49 0 88 -39 88 -88zM222 652c0 30 -25 55 -55 55c-31 0 -56 -25 -56 -55c0 -31 25 -56 56 -56c30 0 55 25 55 56z" />
    <glyph glyph-name="cedilla" unicode="&#xb8;" horiz-adv-x="333" 
d="M133 11h50l-17 -60c46 -1 87 -17 87 -67c0 -49 -50 -82 -150 -82c-14 0 -23 1 -51 5l4 41c15 -2 28 -3 40 -3c20 0 90 4 90 45c0 5 0 43 -76 39z" />
    <glyph glyph-name="hungarumlaut" unicode="&#x2dd;" horiz-adv-x="333" 
d="M274 716h97l-110 -129h-50zM129 716h97l-110 -129h-50z" />
    <glyph glyph-name="ogonek" unicode="&#x2db;" horiz-adv-x="333" 
d="M120 10h45c-6 -18 -16 -51 -16 -82c0 -41 25 -75 71 -75c30 0 55 9 75 17v-42c-31 -15 -66 -25 -101 -25c-60 0 -94 47 -94 105c0 15 2 46 20 102z" />
    <glyph glyph-name="caron" unicode="&#x2c7;" horiz-adv-x="333" 
d="M207 586h-81l-96 130h67l68 -90l68 90h70z" />
    <glyph glyph-name="emdash" unicode="&#x2014;" horiz-adv-x="1000" 
d="M-6 273h1012v-46h-1012v46z" />
    <glyph glyph-name="AE" unicode="&#xc6;" horiz-adv-x="1000" 
d="M493 218h-311l-105 -218h-73l344 716h580v-60h-367v-258h342v-60h-342v-278h378v-60h-446v218zM211 278h282v378h-102z" />
    <glyph glyph-name="ordfeminine" unicode="&#xaa;" horiz-adv-x="334" 
d="M65 617l-48 10c18 93 101 101 153 101c119 0 137 -48 137 -126v-128c0 -60 6 -79 15 -101h-51c-8 19 -10 25 -14 46c-55 -57 -124 -58 -139 -58c-62 0 -110 37 -110 99c0 89 81 101 146 110c39 5 71 14 103 22v16c0 50 -21 80 -86 80c-76 0 -93 -27 -106 -71zM257 527v25
c-33 -11 -68 -18 -102 -23c-40 -6 -97 -14 -97 -64c0 -36 33 -62 77 -62c30 0 67 13 96 42c14 14 26 35 26 82z" />
    <glyph glyph-name="Lslash" unicode="&#x141;" 
d="M88 716h68v-304l164 139v-56l-164 -139v-296h361v-60h-429v299l-76 -64v57l76 64v360z" />
    <glyph glyph-name="Oslash" unicode="&#xd8;" horiz-adv-x="778" 
d="M164 70l-83 -93l-34 29l87 97c-74 93 -78 218 -78 254c0 183 94 371 332 371c85 0 169 -25 229 -85l81 92l33 -29l-86 -95c48 -57 77 -159 77 -254c0 -126 -54 -369 -334 -369c-135 0 -199 57 -224 82zM600 559l-392 -440c28 -26 88 -75 179 -75c112 0 265 74 265 312
c0 71 -15 142 -52 203zM180 154l392 440c-37 42 -110 78 -184 78c-105 0 -262 -72 -262 -314c0 -39 5 -126 54 -204z" />
    <glyph glyph-name="OE" unicode="&#x152;" horiz-adv-x="1000" 
d="M551 716h399v-60h-338v-258h313v-60h-313v-278h352v-60h-413v94h-2c-22 -32 -79 -106 -207 -106c-155 0 -286 116 -286 370c0 256 130 370 285 370c134 0 188 -76 208 -107h2v95zM544 297v135c0 111 -33 240 -193 240c-224 0 -225 -261 -225 -314
c0 -254 133 -314 224 -314c190 0 194 189 194 253z" />
    <glyph glyph-name="ordmasculine" unicode="&#xba;" horiz-adv-x="334" 
d="M327 544c0 -149 -99 -183 -159 -183c-38 0 -78 13 -106 37c-49 42 -54 113 -54 147c0 131 71 183 158 183c100 0 161 -75 161 -184zM277 544c0 73 -29 142 -112 142c-92 0 -107 -82 -107 -142c0 -75 30 -141 107 -141c110 0 112 118 112 141z" />
    <glyph glyph-name="ae" unicode="&#xe6;" horiz-adv-x="889" 
d="M843 250h-385c1 -142 64 -212 161 -212c119 0 144 87 155 125l65 -10c-16 -43 -60 -165 -214 -165c-127 0 -172 71 -191 100c-33 -31 -108 -100 -222 -100c-118 0 -165 74 -165 141c0 131 125 148 198 158c94 13 128 24 153 33v18c0 23 -1 67 -9 84
c-22 46 -69 58 -119 58c-98 0 -132 -46 -148 -114l-63 10c9 45 29 154 218 154c127 0 153 -49 169 -79c24 28 66 79 171 79c94 0 148 -49 175 -84c42 -55 51 -127 51 -196zM459 300h318c-2 146 -98 180 -157 180c-97 0 -156 -75 -161 -180zM398 194v76c-4 0 -24 -6 -28 -7
c-54 -13 -74 -17 -133 -25c-34 -5 -126 -20 -126 -104c0 -36 26 -96 117 -96c53 0 104 21 140 60c29 31 30 93 30 96z" />
    <glyph glyph-name="dotlessi" unicode="&#x131;" horiz-adv-x="222" 
d="M81 518h60v-518h-60v518z" />
    <glyph glyph-name="lslash" unicode="&#x142;" horiz-adv-x="222" 
d="M81 716h60v-304l71 56v-53l-71 -56v-359h-60v305l-71 -61v53l71 61v358z" />
    <glyph glyph-name="oslash" unicode="&#xf8;" 
d="M137 35l-52 -69l-33 22l57 75c-26 32 -63 85 -63 192c0 113 43 275 232 275c60 0 101 -12 146 -49l49 65l32 -28l-51 -67c55 -81 55 -168 55 -188c0 -125 -35 -181 -71 -215c-57 -53 -123 -60 -161 -60c-83 0 -123 33 -140 47zM415 400l-243 -319c36 -36 80 -43 108 -43
c109 0 165 95 165 218c0 60 -13 112 -30 144zM146 113l244 323c-29 30 -69 44 -110 44c-101 0 -170 -79 -170 -219c0 -50 8 -102 36 -148z" />
    <glyph glyph-name="oe" unicode="&#x153;" horiz-adv-x="944" 
d="M899 252h-386c2 -49 13 -214 162 -214c111 0 136 70 155 123l62 -10c-48 -158 -161 -163 -218 -163c-99 0 -152 35 -193 110c-47 -93 -127 -110 -194 -110c-69 0 -109 11 -152 48c-39 34 -88 93 -88 221c0 174 94 273 237 273c75 0 149 -24 197 -110
c44 73 100 110 192 110c30 0 113 0 178 -86c38 -50 46 -123 48 -192zM513 302h322c1 103 -71 178 -161 178c-14 0 -150 1 -161 -178zM449 251c0 65 -5 229 -160 229c-98 0 -178 -71 -178 -222c0 -107 47 -220 170 -220c168 0 168 172 168 213z" />
    <glyph glyph-name="germandbls" unicode="&#xdf;" horiz-adv-x="500" 
d="M52 0v535c0 87 24 126 61 155c39 30 81 38 121 38c125 0 162 -80 162 -130c0 -44 -22 -81 -47 -121c-30 -48 -43 -73 -43 -96s12 -34 54 -67c91 -71 113 -113 113 -169c0 -85 -68 -157 -154 -157c-81 0 -115 46 -146 88l56 30c37 -61 81 -62 89 -62c49 0 91 45 91 96
c0 47 -37 87 -102 134c-50 36 -70 60 -70 101c0 31 14 56 57 126c25 41 38 68 38 97c0 41 -34 74 -99 74c-111 0 -121 -95 -121 -154v-518h-60z" />
    <glyph glyph-name="divide" unicode="&#xf7;" horiz-adv-x="660" 
d="M68 375h524v-46h-524v46zM294 555h72v-72h-72v72zM294 221h72v-72h-72v72z" />
    <glyph glyph-name="threequarters" unicode="&#xbe;" horiz-adv-x="834" 
d="M176 530l8 43c26 3 92 10 92 56c0 33 -34 54 -70 54c-60 0 -72 -26 -86 -56l-53 8c10 27 37 93 140 93c78 0 124 -40 124 -92c0 -51 -40 -68 -61 -78c23 -6 77 -22 77 -93c0 -68 -60 -114 -142 -114c-114 0 -138 74 -147 103l54 5c7 -18 25 -63 92 -63c48 0 88 27 88 72
c0 32 -22 64 -82 64c-6 0 -19 -1 -34 -2zM669 728h55l-534 -754h-56zM670 67h-196v43l204 241h44v-241h49v-43h-49v-83h-52v83zM530 110h140v160z" />
    <glyph glyph-name="onequarter" unicode="&#xbc;" horiz-adv-x="834" 
d="M670 67h-196v43l204 241h44v-241h49v-43h-49v-83h-52v83zM530 110h140v160zM198 728h38v-367h-52v288c-34 -28 -70 -45 -110 -58v41c67 36 93 60 124 96zM663 728h55l-534 -754h-56z" />
    <glyph glyph-name="onesuperior" unicode="&#xb9;" horiz-adv-x="333" 
d="M186 728h38v-367h-52v288c-34 -28 -70 -45 -110 -58v41c67 36 93 60 124 96z" />
    <glyph glyph-name="multiply" unicode="&#xd7;" horiz-adv-x="660" 
d="M135 578l195 -194l195 194l32 -32l-194 -194l194 -195l-32 -32l-195 195l-195 -195l-32 32l195 195l-195 194z" />
    <glyph glyph-name="registered" unicode="&#xae;" horiz-adv-x="800" 
d="M412 547c133 0 133 -93 133 -104c0 -93 -87 -107 -116 -110v-2c54 -19 68 -31 131 -176h-59l-11 23c-61 128 -82 147 -169 147h-23v-170h-49v392h163zM298 507v-142h65c65 0 125 7 125 74c0 64 -51 68 -117 68h-73zM773 355c0 -206 -167 -373 -373 -373
s-373 167 -373 373s167 373 373 373s373 -167 373 -373zM727 355c0 181 -146 327 -327 327s-327 -146 -327 -327s146 -327 327 -327s327 146 327 327z" />
    <glyph glyph-name="Thorn" unicode="&#xde;" horiz-adv-x="611" 
d="M88 716h68v-152h181c10 0 92 0 142 -32c51 -32 89 -94 89 -172c0 -89 -52 -209 -231 -209h-181v-151h-68v716zM318 504h-162v-293h162c76 0 180 21 180 146c0 145 -131 147 -180 147z" />
    <glyph glyph-name="brokenbar" unicode="&#xa6;" horiz-adv-x="222" 
d="M86 716h50v-368h-50v368zM86 169h50v-367h-50v367z" />
    <glyph glyph-name="Eth" unicode="&#xd0;" horiz-adv-x="722" 
d="M89 0v326h-89v60h89v330h275c51 0 104 -7 149 -31c114 -61 154 -199 154 -319c0 -92 -19 -256 -151 -331c-42 -24 -124 -35 -152 -35h-275zM157 326v-266h168c29 0 92 -1 136 19c105 48 135 165 135 288c0 55 -8 209 -128 264c-51 23 -136 25 -141 25h-170v-270h219v-60
h-219z" />
    <glyph glyph-name="onehalf" unicode="&#xbd;" horiz-adv-x="834" 
d="M198 728h38v-367h-52v288c-34 -28 -70 -45 -110 -58v41c67 36 93 60 124 96zM652 728h54l-533 -754h-57zM783 -16h-296c15 39 30 78 144 157c52 36 93 66 93 106c0 32 -28 61 -77 61c-69 0 -87 -47 -95 -65l-53 5c11 30 36 103 148 103c96 0 132 -51 132 -101
c0 -56 -46 -96 -103 -138c-61 -45 -72 -53 -105 -85h212v-43z" />
    <glyph glyph-name="minus" unicode="&#x2212;" horiz-adv-x="660" 
d="M68 375h524v-46h-524v46z" />
    <glyph glyph-name="ccedilla" unicode="&#xe7;" 
d="M504 372l-64 -10c-22 75 -82 118 -160 118c-64 0 -170 -40 -170 -214c0 -131 60 -228 173 -228c118 0 153 99 168 139l60 -9c-12 -52 -48 -173 -219 -180l-5 -30c44 -1 87 -15 87 -68c0 -83 -124 -83 -149 -83c-14 0 -19 0 -36 2v42c20 -2 27 -2 35 -2c41 0 94 5 94 45
c0 35 -48 34 -75 34l10 61c-181 15 -207 194 -207 271c0 110 45 270 236 270c77 0 117 -14 158 -50c46 -41 57 -81 64 -108z" />
    <glyph glyph-name="eth" unicode="&#xf0;" 
d="M318 664l109 52l17 -45l-95 -42c41 -44 162 -175 162 -380c0 -68 -31 -261 -232 -261c-171 0 -232 147 -232 270c0 159 90 264 212 264c51 0 82 -18 119 -42l2 2c-18 37 -49 88 -82 124l-141 -61l-18 39l126 57c-29 29 -43 40 -95 75h84c25 -18 35 -26 64 -52zM447 242
c0 57 -10 148 -77 197c-32 23 -71 33 -99 33c-34 0 -160 -15 -160 -215c0 -165 91 -219 172 -219c85 0 164 79 164 204z" />
    <glyph glyph-name="plusminus" unicode="&#xb1;" horiz-adv-x="660" 
d="M307 614h46v-239h239v-46h-239v-239h-46v239h-239v46h239v239zM68 46h524v-46h-524v46z" />
    <glyph glyph-name="Ccedilla" unicode="&#xc7;" horiz-adv-x="722" 
d="M670 518l-65 -17c-13 36 -59 171 -215 171c-111 0 -264 -79 -264 -316c0 -192 100 -312 253 -312c175 0 217 138 235 199l66 -18c-16 -53 -70 -234 -290 -237l-8 -33c23 -4 80 -15 80 -71c0 -87 -124 -87 -166 -87c-10 0 -14 0 -30 2v45c17 -2 25 -2 35 -2
c31 0 99 0 99 43c0 39 -60 43 -80 44l20 61c-247 29 -284 265 -284 367c0 250 161 371 329 371c203 0 262 -151 285 -210z" />
    <glyph glyph-name="thorn" unicode="&#xfe;" horiz-adv-x="611" 
d="M139 79v-277h-60v914h60v-282h2c22 32 71 96 192 96c181 0 232 -157 232 -267c0 -74 -27 -275 -236 -275c-113 0 -160 55 -188 91h-2zM501 258c0 152 -83 222 -173 222c-48 0 -88 -17 -119 -42c-36 -29 -70 -77 -70 -187c0 -148 86 -213 185 -213c93 0 177 76 177 220z
" />
    <glyph glyph-name="copyright" unicode="&#xa9;" horiz-adv-x="800" 
d="M562 451l-47 -14c-30 69 -76 80 -110 80c-36 0 -137 -20 -137 -158c0 -115 64 -175 132 -175c82 0 106 61 122 102l44 -16c-12 -33 -44 -128 -164 -128c-122 0 -187 111 -187 214c0 93 58 203 190 203c88 0 131 -57 157 -108zM773 355c0 -206 -167 -373 -373 -373
s-373 167 -373 373s167 373 373 373s373 -167 373 -373zM727 355c0 181 -146 327 -327 327s-327 -146 -327 -327s146 -327 327 -327s327 146 327 327z" />
    <glyph glyph-name="logicalnot" unicode="&#xac;" horiz-adv-x="660" 
d="M68 492h524v-284h-46v238h-478v46z" />
    <glyph glyph-name="twosuperior" unicode="&#xb2;" horiz-adv-x="333" 
d="M314 362h-296c15 39 30 77 144 156c52 36 93 67 93 106c0 32 -25 59 -77 59c-74 0 -90 -51 -95 -62l-53 4c11 31 36 103 148 103c96 0 132 -51 132 -101c0 -56 -46 -96 -103 -137c-62 -44 -72 -54 -105 -86h212v-42z" />
    <glyph glyph-name="threesuperior" unicode="&#xb3;" horiz-adv-x="333" 
d="M143 530l8 43c26 3 92 10 92 56c0 33 -34 54 -70 54c-60 0 -72 -26 -86 -56l-53 8c10 27 37 93 140 93c78 0 124 -40 124 -92c0 -51 -40 -68 -61 -78c23 -6 77 -22 77 -93c0 -68 -60 -114 -142 -114c-114 0 -138 74 -147 103l54 5c7 -18 25 -61 92 -61c48 0 89 25 89 70
c0 32 -23 64 -83 64c-6 0 -19 -1 -34 -2z" />
    <glyph glyph-name="trademark" unicode="&#x2122;" horiz-adv-x="940" 
d="M100 716h310v-43h-131v-356h-49v356h-130v43zM456 716h75l99 -319h2l103 319h75v-399h-45v356h-2l-116 -356h-34l-110 356h-2v-356h-45v399z" />
    <glyph glyph-name="degree" unicode="&#xb0;" horiz-adv-x="400" 
d="M340 588c0 -78 -62 -140 -140 -140c-77 0 -140 62 -140 140c0 77 63 140 140 140c78 0 140 -63 140 -140zM300 588c0 55 -45 100 -100 100s-100 -45 -100 -100s45 -100 100 -100s100 45 100 100z" />
    <glyph glyph-name="mu" unicode="&#xb5;" 
d="M80 518h60v-215c0 -133 3 -171 41 -217c35 -42 73 -45 101 -45c51 0 93 22 120 75c20 39 19 139 19 186v216h60v-518h-60v58c-22 -26 -57 -70 -142 -70c-79 0 -117 45 -139 70v-262h-60v722z" />
    <glyph glyph-name="space" unicode=" " horiz-adv-x="278" 
 />
    <glyph glyph-name="Aacute" unicode="&#xc1;" horiz-adv-x="667" 
d="M497 226h-334l-90 -226h-73l291 716h71l305 -716h-77zM184 286h290l-148 359zM341 896h97l-110 -129h-50z" />
    <glyph glyph-name="Acircumflex" unicode="&#xc2;" horiz-adv-x="667" 
d="M497 226h-334l-90 -226h-73l291 716h71l305 -716h-77zM184 286h290l-148 359zM293 896h81l96 -130h-67l-68 90l-68 -90h-70z" />
    <glyph glyph-name="Adieresis" unicode="&#xc4;" horiz-adv-x="667" 
d="M497 226h-334l-90 -226h-73l291 716h71l305 -716h-77zM184 286h290l-148 359zM228 857h60v-85h-60v85zM379 857h60v-85h-60v85z" />
    <glyph glyph-name="Agrave" unicode="&#xc0;" horiz-adv-x="667" 
d="M497 226h-334l-90 -226h-73l291 716h71l305 -716h-77zM184 286h290l-148 359zM326 896l63 -129h-50l-110 129h97z" />
    <glyph glyph-name="Aring" unicode="&#xc5;" horiz-adv-x="667" 
d="M497 226h-334l-90 -226h-73l291 716h71l305 -716h-77zM184 286h290l-148 359zM421 831c0 -48 -39 -87 -88 -87c-48 0 -87 39 -87 87c0 49 39 88 87 88c49 0 88 -39 88 -88zM389 832c0 30 -25 55 -55 55c-31 0 -56 -25 -56 -55c0 -31 25 -56 56 -56c30 0 55 25 55 56z" />
    <glyph glyph-name="Atilde" unicode="&#xc3;" horiz-adv-x="667" 
d="M497 226h-334l-90 -226h-73l291 716h71l305 -716h-77zM184 286h290l-148 359zM434 874h46c-6 -82 -48 -92 -68 -92c-18 0 -30 3 -85 23c-20 8 -42 16 -63 16c-29 0 -32 -22 -34 -39h-43c3 43 15 92 64 92c24 0 102 -25 129 -34c2 -1 13 -5 20 -5c29 0 32 28 34 39z" />
    <glyph glyph-name="Eacute" unicode="&#xc9;" horiz-adv-x="611" 
d="M156 398h361v-60h-361v-278h404v-60h-472v716h458v-60h-390v-258zM313 896h97l-110 -129h-50z" />
    <glyph glyph-name="Ecircumflex" unicode="&#xca;" horiz-adv-x="611" 
d="M156 398h361v-60h-361v-278h404v-60h-472v716h458v-60h-390v-258zM265 896h81l96 -130h-67l-68 90l-68 -90h-70z" />
    <glyph glyph-name="Edieresis" unicode="&#xcb;" horiz-adv-x="611" 
d="M156 398h361v-60h-361v-278h404v-60h-472v716h458v-60h-390v-258zM200 857h60v-85h-60v85zM351 857h60v-85h-60v85z" />
    <glyph glyph-name="Egrave" unicode="&#xc8;" horiz-adv-x="611" 
d="M156 398h361v-60h-361v-278h404v-60h-472v716h458v-60h-390v-258zM298 896l63 -129h-50l-110 129h97z" />
    <glyph glyph-name="Iacute" unicode="&#xcd;" horiz-adv-x="278" 
d="M105 716h68v-716h-68v716zM147 896h97l-110 -129h-50z" />
    <glyph glyph-name="Icircumflex" unicode="&#xce;" horiz-adv-x="278" 
d="M105 716h68v-716h-68v716zM99 896h81l96 -130h-67l-68 90l-68 -90h-70z" />
    <glyph glyph-name="Idieresis" unicode="&#xcf;" horiz-adv-x="278" 
d="M105 716h68v-716h-68v716zM34 857h60v-85h-60v85zM185 857h60v-85h-60v85z" />
    <glyph glyph-name="Igrave" unicode="&#xcc;" horiz-adv-x="278" 
d="M105 716h68v-716h-68v716zM132 896l63 -129h-50l-110 129h97z" />
    <glyph glyph-name="Ntilde" unicode="&#xd1;" horiz-adv-x="722" 
d="M87 716h68l415 -619h3v619h62v-716h-72l-412 615h-2v-615h-62v716zM462 874h46c-6 -82 -48 -92 -68 -92c-18 0 -30 3 -85 23c-20 8 -42 16 -63 16c-29 0 -32 -22 -34 -39h-43c3 43 15 92 64 92c24 0 102 -25 129 -34c2 -1 13 -5 20 -5c29 0 32 28 34 39z" />
    <glyph glyph-name="Oacute" unicode="&#xd3;" horiz-adv-x="778" 
d="M389 728c267 0 333 -226 333 -370c0 -152 -71 -370 -333 -370c-266 0 -333 225 -333 370c0 150 70 370 333 370zM389 672c-24 0 -121 -6 -189 -84c-55 -63 -74 -147 -74 -230c0 -247 161 -314 263 -314c101 0 263 67 263 314c0 225 -139 314 -263 314zM397 896h97
l-110 -129h-50z" />
    <glyph glyph-name="Ocircumflex" unicode="&#xd4;" horiz-adv-x="778" 
d="M389 728c267 0 333 -226 333 -370c0 -152 -71 -370 -333 -370c-266 0 -333 225 -333 370c0 150 70 370 333 370zM389 672c-24 0 -121 -6 -189 -84c-55 -63 -74 -147 -74 -230c0 -247 161 -314 263 -314c101 0 263 67 263 314c0 225 -139 314 -263 314zM349 896h81
l96 -130h-67l-68 90l-68 -90h-70z" />
    <glyph glyph-name="Odieresis" unicode="&#xd6;" horiz-adv-x="778" 
d="M389 728c267 0 333 -226 333 -370c0 -152 -71 -370 -333 -370c-266 0 -333 225 -333 370c0 150 70 370 333 370zM389 672c-24 0 -121 -6 -189 -84c-55 -63 -74 -147 -74 -230c0 -247 161 -314 263 -314c101 0 263 67 263 314c0 225 -139 314 -263 314zM284 857h60v-85
h-60v85zM435 857h60v-85h-60v85z" />
    <glyph glyph-name="Ograve" unicode="&#xd2;" horiz-adv-x="778" 
d="M389 728c267 0 333 -226 333 -370c0 -152 -71 -370 -333 -370c-266 0 -333 225 -333 370c0 150 70 370 333 370zM389 672c-24 0 -121 -6 -189 -84c-55 -63 -74 -147 -74 -230c0 -247 161 -314 263 -314c101 0 263 67 263 314c0 225 -139 314 -263 314zM382 896l63 -129
h-50l-110 129h97z" />
    <glyph glyph-name="Otilde" unicode="&#xd5;" horiz-adv-x="778" 
d="M389 728c267 0 333 -226 333 -370c0 -152 -71 -370 -333 -370c-266 0 -333 225 -333 370c0 150 70 370 333 370zM389 672c-24 0 -121 -6 -189 -84c-55 -63 -74 -147 -74 -230c0 -247 161 -314 263 -314c101 0 263 67 263 314c0 225 -139 314 -263 314zM490 874h46
c-6 -82 -48 -92 -68 -92c-18 0 -30 3 -85 23c-20 8 -42 16 -63 16c-29 0 -32 -22 -34 -39h-43c3 43 15 92 64 92c24 0 102 -25 129 -34c2 -1 13 -5 20 -5c29 0 32 28 34 39z" />
    <glyph glyph-name="Scaron" unicode="&#x160;" horiz-adv-x="611" 
d="M541 527l-66 -3c-2 33 -13 148 -169 148c-103 0 -167 -56 -167 -129c0 -94 90 -120 168 -136c112 -23 255 -54 255 -209c0 -80 -53 -210 -253 -210c-136 0 -249 51 -265 227l67 6c3 -27 7 -61 29 -96c44 -70 121 -81 164 -81c103 0 192 51 192 150
c0 108 -122 130 -186 142c-95 18 -237 48 -237 201c0 102 77 191 228 191c74 0 158 -17 204 -85c31 -45 34 -84 36 -116zM346 766h-81l-96 130h67l68 -90l68 90h70z" />
    <glyph glyph-name="Uacute" unicode="&#xda;" horiz-adv-x="722" 
d="M87 716h68v-459c0 -64 3 -213 207 -213c156 0 205 94 205 212v460h68v-453c0 -174 -86 -275 -272 -275c-196 0 -276 97 -276 275v453zM369 896h97l-110 -129h-50z" />
    <glyph glyph-name="Ucircumflex" unicode="&#xdb;" horiz-adv-x="722" 
d="M87 716h68v-459c0 -64 3 -213 207 -213c156 0 205 94 205 212v460h68v-453c0 -174 -86 -275 -272 -275c-196 0 -276 97 -276 275v453zM321 896h81l96 -130h-67l-68 90l-68 -90h-70z" />
    <glyph glyph-name="Udieresis" unicode="&#xdc;" horiz-adv-x="722" 
d="M87 716h68v-459c0 -64 3 -213 207 -213c156 0 205 94 205 212v460h68v-453c0 -174 -86 -275 -272 -275c-196 0 -276 97 -276 275v453zM256 857h60v-85h-60v85zM407 857h60v-85h-60v85z" />
    <glyph glyph-name="Ugrave" unicode="&#xd9;" horiz-adv-x="722" 
d="M87 716h68v-459c0 -64 3 -213 207 -213c156 0 205 94 205 212v460h68v-453c0 -174 -86 -275 -272 -275c-196 0 -276 97 -276 275v453zM354 896l63 -129h-50l-110 129h97z" />
    <glyph glyph-name="Yacute" unicode="&#xdd;" horiz-adv-x="611" 
d="M6 716h80l219 -344l223 344h77l-270 -407v-309h-68v309zM313 896h97l-110 -129h-50z" />
    <glyph glyph-name="Ydieresis" unicode="&#x178;" horiz-adv-x="611" 
d="M6 716h80l219 -344l223 344h77l-270 -407v-309h-68v309zM200 857h60v-85h-60v85zM351 857h60v-85h-60v85z" />
    <glyph glyph-name="Zcaron" unicode="&#x17d;" horiz-adv-x="611" 
d="M64 716h506v-58l-468 -598h478v-60h-557v63l463 593h-422v60zM346 784h-81l-96 130h67l68 -90l68 90h70z" />
    <glyph glyph-name="aacute" unicode="&#xe1;" 
d="M121 368l-62 9c20 108 87 153 223 153c196 0 197 -98 197 -220c0 -11 -2 -124 -2 -146c0 -92 9 -116 32 -164h-67c-12 31 -15 44 -19 79c-23 -25 -84 -91 -211 -91c-119 0 -165 75 -165 144c0 34 9 79 58 116c19 15 43 31 158 47c52 7 107 14 155 31v18
c0 64 0 139 -136 139c-135 0 -152 -77 -161 -115zM418 245v34c-43 -16 -115 -30 -165 -39c-68 -12 -142 -25 -142 -103c0 -59 54 -99 113 -99c42 0 97 19 140 54c37 30 54 71 54 153zM286 716h97l-110 -129h-50z" />
    <glyph glyph-name="acircumflex" unicode="&#xe2;" 
d="M121 368l-62 9c20 108 87 153 223 153c196 0 197 -98 197 -220c0 -11 -2 -124 -2 -146c0 -92 9 -116 32 -164h-67c-12 31 -15 44 -19 79c-23 -25 -84 -91 -211 -91c-119 0 -165 75 -165 144c0 34 9 79 58 116c19 15 43 31 158 47c52 7 107 14 155 31v18
c0 64 0 139 -136 139c-135 0 -152 -77 -161 -115zM418 245v34c-43 -16 -115 -30 -165 -39c-68 -12 -142 -25 -142 -103c0 -59 54 -99 113 -99c42 0 97 19 140 54c37 30 54 71 54 153zM238 716h81l96 -130h-67l-68 90l-68 -90h-70z" />
    <glyph glyph-name="adieresis" unicode="&#xe4;" 
d="M121 368l-62 9c20 108 87 153 223 153c196 0 197 -98 197 -220c0 -11 -2 -124 -2 -146c0 -92 9 -116 32 -164h-67c-12 31 -15 44 -19 79c-23 -25 -84 -91 -211 -91c-119 0 -165 75 -165 144c0 34 9 79 58 116c19 15 43 31 158 47c52 7 107 14 155 31v18
c0 64 0 139 -136 139c-135 0 -152 -77 -161 -115zM418 245v34c-43 -16 -115 -30 -165 -39c-68 -12 -142 -25 -142 -103c0 -59 54 -99 113 -99c42 0 97 19 140 54c37 30 54 71 54 153zM173 677h60v-85h-60v85zM324 677h60v-85h-60v85z" />
    <glyph glyph-name="agrave" unicode="&#xe0;" 
d="M121 368l-62 9c20 108 87 153 223 153c196 0 197 -98 197 -220c0 -11 -2 -124 -2 -146c0 -92 9 -116 32 -164h-67c-12 31 -15 44 -19 79c-23 -25 -84 -91 -211 -91c-119 0 -165 75 -165 144c0 34 9 79 58 116c19 15 43 31 158 47c52 7 107 14 155 31v18
c0 64 0 139 -136 139c-135 0 -152 -77 -161 -115zM418 245v34c-43 -16 -115 -30 -165 -39c-68 -12 -142 -25 -142 -103c0 -59 54 -99 113 -99c42 0 97 19 140 54c37 30 54 71 54 153zM271 716l63 -129h-50l-110 129h97z" />
    <glyph glyph-name="aring" unicode="&#xe5;" 
d="M121 368l-62 9c20 108 87 153 223 153c196 0 197 -98 197 -220c0 -11 -2 -124 -2 -146c0 -92 9 -116 32 -164h-67c-12 31 -15 44 -19 79c-23 -25 -84 -91 -211 -91c-119 0 -165 75 -165 144c0 34 9 79 58 116c19 15 43 31 158 47c52 7 107 14 155 31v18
c0 64 0 139 -136 139c-135 0 -152 -77 -161 -115zM418 245v34c-43 -16 -115 -30 -165 -39c-68 -12 -142 -25 -142 -103c0 -59 54 -99 113 -99c42 0 97 19 140 54c37 30 54 71 54 153zM366 651c0 -48 -39 -87 -88 -87c-48 0 -87 39 -87 87c0 49 39 88 87 88
c49 0 88 -39 88 -88zM334 652c0 30 -25 55 -55 55c-31 0 -56 -25 -56 -55c0 -31 25 -56 56 -56c30 0 55 25 55 56z" />
    <glyph glyph-name="atilde" unicode="&#xe3;" 
d="M121 368l-62 9c20 108 87 153 223 153c196 0 197 -98 197 -220c0 -11 -2 -124 -2 -146c0 -92 9 -116 32 -164h-67c-12 31 -15 44 -19 79c-23 -25 -84 -91 -211 -91c-119 0 -165 75 -165 144c0 34 9 79 58 116c19 15 43 31 158 47c52 7 107 14 155 31v18
c0 64 0 139 -136 139c-135 0 -152 -77 -161 -115zM418 245v34c-43 -16 -115 -30 -165 -39c-68 -12 -142 -25 -142 -103c0 -59 54 -99 113 -99c42 0 97 19 140 54c37 30 54 71 54 153zM379 694h46c-6 -82 -48 -92 -68 -92c-18 0 -30 3 -85 23c-20 8 -42 16 -63 16
c-29 0 -32 -22 -34 -39h-43c3 43 15 92 64 92c24 0 102 -25 129 -34c2 -1 13 -5 20 -5c29 0 32 28 34 39z" />
    <glyph glyph-name="eacute" unicode="&#xe9;" 
d="M511 252h-399c2 -125 59 -214 174 -214c114 0 147 93 159 126l60 -10c-18 -50 -59 -166 -222 -166c-149 0 -235 105 -235 271c0 163 84 271 236 271c225 0 226 -226 227 -278zM113 302h334c-12 138 -91 178 -165 178c-31 0 -149 -8 -169 -178zM286 716h97l-110 -129h-50z
" />
    <glyph glyph-name="ecircumflex" unicode="&#xea;" 
d="M511 252h-399c2 -125 59 -214 174 -214c114 0 147 93 159 126l60 -10c-18 -50 -59 -166 -222 -166c-149 0 -235 105 -235 271c0 163 84 271 236 271c225 0 226 -226 227 -278zM113 302h334c-12 138 -91 178 -165 178c-31 0 -149 -8 -169 -178zM238 716h81l96 -130h-67
l-68 90l-68 -90h-70z" />
    <glyph glyph-name="edieresis" unicode="&#xeb;" 
d="M511 252h-399c2 -125 59 -214 174 -214c114 0 147 93 159 126l60 -10c-18 -50 -59 -166 -222 -166c-149 0 -235 105 -235 271c0 163 84 271 236 271c225 0 226 -226 227 -278zM113 302h334c-12 138 -91 178 -165 178c-31 0 -149 -8 -169 -178zM173 677h60v-85h-60v85z
M324 677h60v-85h-60v85z" />
    <glyph glyph-name="egrave" unicode="&#xe8;" 
d="M511 252h-399c2 -125 59 -214 174 -214c114 0 147 93 159 126l60 -10c-18 -50 -59 -166 -222 -166c-149 0 -235 105 -235 271c0 163 84 271 236 271c225 0 226 -226 227 -278zM113 302h334c-12 138 -91 178 -165 178c-31 0 -149 -8 -169 -178zM271 716l63 -129h-50
l-110 129h97z" />
    <glyph glyph-name="iacute" unicode="&#xed;" horiz-adv-x="222" 
d="M81 518h60v-518h-60v518zM119 716h97l-110 -129h-50z" />
    <glyph glyph-name="icircumflex" unicode="&#xee;" horiz-adv-x="222" 
d="M81 518h60v-518h-60v518zM71 716h81l96 -130h-67l-68 90l-68 -90h-70z" />
    <glyph glyph-name="idieresis" unicode="&#xef;" horiz-adv-x="222" 
d="M81 518h60v-518h-60v518zM6 677h60v-85h-60v85zM157 677h60v-85h-60v85z" />
    <glyph glyph-name="igrave" unicode="&#xec;" horiz-adv-x="222" 
d="M81 518h60v-518h-60v518zM104 716l63 -129h-50l-110 129h97z" />
    <glyph glyph-name="ntilde" unicode="&#xf1;" 
d="M80 518h60v-76h2c28 38 67 88 165 88c78 0 120 -36 137 -55c38 -43 37 -106 37 -137v-338h-60v322c0 42 -2 80 -20 106c-21 31 -58 49 -100 49c-56 0 -116 -34 -143 -92c-15 -32 -18 -72 -18 -160v-225h-60v518zM379 694h46c-6 -82 -48 -92 -68 -92c-18 0 -30 3 -85 23
c-20 8 -42 16 -63 16c-29 0 -32 -22 -34 -39h-43c3 43 15 92 64 92c24 0 102 -25 129 -34c2 -1 13 -5 20 -5c29 0 32 28 34 39z" />
    <glyph glyph-name="oacute" unicode="&#xf3;" 
d="M509 256c0 -153 -71 -268 -232 -268c-146 0 -232 112 -231 268c1 179 89 274 231 274c140 0 232 -95 232 -274zM445 256c0 142 -61 224 -166 224c-114 0 -169 -96 -169 -224c0 -142 71 -218 170 -218s165 79 165 218zM286 716h97l-110 -129h-50z" />
    <glyph glyph-name="ocircumflex" unicode="&#xf4;" 
d="M509 256c0 -153 -71 -268 -232 -268c-146 0 -232 112 -231 268c1 179 89 274 231 274c140 0 232 -95 232 -274zM445 256c0 142 -61 224 -166 224c-114 0 -169 -96 -169 -224c0 -142 71 -218 170 -218s165 79 165 218zM238 716h81l96 -130h-67l-68 90l-68 -90h-70z" />
    <glyph glyph-name="odieresis" unicode="&#xf6;" 
d="M509 256c0 -153 -71 -268 -232 -268c-146 0 -232 112 -231 268c1 179 89 274 231 274c140 0 232 -95 232 -274zM445 256c0 142 -61 224 -166 224c-114 0 -169 -96 -169 -224c0 -142 71 -218 170 -218s165 79 165 218zM173 677h60v-85h-60v85zM324 677h60v-85h-60v85z" />
    <glyph glyph-name="ograve" unicode="&#xf2;" 
d="M509 256c0 -153 -71 -268 -232 -268c-146 0 -232 112 -231 268c1 179 89 274 231 274c140 0 232 -95 232 -274zM445 256c0 142 -61 224 -166 224c-114 0 -169 -96 -169 -224c0 -142 71 -218 170 -218s165 79 165 218zM271 716l63 -129h-50l-110 129h97z" />
    <glyph glyph-name="otilde" unicode="&#xf5;" 
d="M509 256c0 -153 -71 -268 -232 -268c-146 0 -232 112 -231 268c1 179 89 274 231 274c140 0 232 -95 232 -274zM445 256c0 142 -61 224 -166 224c-114 0 -169 -96 -169 -224c0 -142 71 -218 170 -218s165 79 165 218zM379 694h46c-6 -82 -48 -92 -68 -92
c-18 0 -30 3 -85 23c-20 8 -42 16 -63 16c-29 0 -32 -22 -34 -39h-43c3 43 15 92 64 92c24 0 102 -25 129 -34c2 -1 13 -5 20 -5c29 0 32 28 34 39z" />
    <glyph glyph-name="scaron" unicode="&#x161;" horiz-adv-x="500" 
d="M429 393l-59 -9c-14 46 -30 96 -132 96c-76 0 -121 -31 -121 -84c0 -48 26 -74 154 -101c105 -22 180 -57 180 -148c0 -84 -62 -159 -202 -159c-143 0 -192 68 -212 152l62 11c8 -29 30 -113 152 -113c88 0 136 46 136 100c0 51 -38 77 -152 101
c-110 23 -182 60 -182 146c0 51 35 145 184 145c102 0 165 -30 192 -137zM291 586h-81l-96 130h67l68 -90l68 90h70z" />
    <glyph glyph-name="uacute" unicode="&#xfa;" 
d="M476 0h-60v77h-2c-28 -39 -67 -89 -165 -89c-78 0 -118 37 -135 55c-40 42 -39 107 -39 137v338h60v-321c0 -42 2 -81 20 -107c21 -30 58 -49 100 -49c56 0 116 35 143 93c14 31 18 72 18 160v224h60v-518zM286 716h97l-110 -129h-50z" />
    <glyph glyph-name="ucircumflex" unicode="&#xfb;" 
d="M476 0h-60v77h-2c-28 -39 -67 -89 -165 -89c-78 0 -118 37 -135 55c-40 42 -39 107 -39 137v338h60v-321c0 -42 2 -81 20 -107c21 -30 58 -49 100 -49c56 0 116 35 143 93c14 31 18 72 18 160v224h60v-518zM238 716h81l96 -130h-67l-68 90l-68 -90h-70z" />
    <glyph glyph-name="udieresis" unicode="&#xfc;" 
d="M476 0h-60v77h-2c-28 -39 -67 -89 -165 -89c-78 0 -118 37 -135 55c-40 42 -39 107 -39 137v338h60v-321c0 -42 2 -81 20 -107c21 -30 58 -49 100 -49c56 0 116 35 143 93c14 31 18 72 18 160v224h60v-518zM173 677h60v-85h-60v85zM324 677h60v-85h-60v85z" />
    <glyph glyph-name="ugrave" unicode="&#xf9;" 
d="M476 0h-60v77h-2c-28 -39 -67 -89 -165 -89c-78 0 -118 37 -135 55c-40 42 -39 107 -39 137v338h60v-321c0 -42 2 -81 20 -107c21 -30 58 -49 100 -49c56 0 116 35 143 93c14 31 18 72 18 160v224h60v-518zM271 716l63 -129h-50l-110 129h97z" />
    <glyph glyph-name="yacute" unicode="&#xfd;" horiz-adv-x="500" 
d="M17 518h67l170 -448l178 448h59l-245 -621c-31 -79 -69 -107 -120 -107c-12 0 -24 1 -58 9l-7 61c33 -7 44 -8 55 -8c40 0 53 14 70 57l36 91zM258 716h97l-110 -129h-50z" />
    <glyph glyph-name="ydieresis" unicode="&#xff;" horiz-adv-x="500" 
d="M17 518h67l170 -448l178 448h59l-245 -621c-31 -79 -69 -107 -120 -107c-12 0 -24 1 -58 9l-7 61c33 -7 44 -8 55 -8c40 0 53 14 70 57l36 91zM145 677h60v-85h-60v85zM296 677h60v-85h-60v85z" />
    <glyph glyph-name="zcaron" unicode="&#x17e;" horiz-adv-x="500" 
d="M41 518h420v-41l-360 -424h376v-53h-456v53l355 415h-335v50zM291 586h-81l-96 130h67l68 -90l68 90h70z" />
    <glyph glyph-name="uni00AD" unicode="&#xad;" horiz-adv-x="333" 
d="M36 290h261v-63h-261v63z" />
    <glyph glyph-name="uni03A9" unicode="&#x3a9;" horiz-adv-x="713" 
d="M659 0h-223v54c62 53 157 148 157 323c0 158 -82 279 -236 279c-144 0 -242 -116 -242 -279c0 -170 90 -265 159 -323v-54h-224v54h156c-65 52 -158 155 -158 331c0 187 126 327 309 327c192 0 302 -134 302 -326c0 -159 -85 -273 -158 -332h158v-54z" />
    <glyph glyph-name="uni03BC" unicode="&#x3bc;" 
d="M80 518h60v-215c0 -133 3 -171 41 -217c35 -42 73 -45 101 -45c51 0 93 22 120 75c20 39 19 139 19 186v216h60v-518h-60v58c-22 -26 -57 -70 -142 -70c-79 0 -117 45 -139 70v-262h-60v722z" />
    <glyph glyph-name="litre" unicode="&#x2113;" horiz-adv-x="495" 
d="M406 56c-25 -28 -69 -69 -130 -69c-35 0 -61 12 -79 31c-24 24 -35 65 -35 114v123c-21 -22 -41 -45 -62 -67c-10 11 -21 22 -31 34c31 34 62 68 93 103v235c0 112 45 168 114 168c70 0 93 -59 93 -102c0 -95 -47 -178 -112 -264c-10 -12 -25 -32 -34 -43v-190
c0 -64 28 -90 65 -90c38 0 69 28 91 53zM317 619c0 30 -11 58 -39 58c-34 0 -55 -31 -55 -117v-167c7 9 17 21 22 31c44 65 72 135 72 195z" />
    <glyph glyph-name="estimated" unicode="&#x212e;" horiz-adv-x="662" 
d="M622 296h-456v-204c44 -43 98 -66 162 -66c105 0 169 53 219 135c12 -8 24 -15 37 -22c-61 -92 -131 -151 -256 -151c-177 0 -289 139 -289 309c0 171 110 308 290 308c183 0 289 -138 293 -309zM492 334v166c-42 42 -101 68 -163 68c-64 0 -120 -22 -163 -66v-168h326z
" />
    <glyph glyph-name="Euro" unicode="&#x20ac;" 
d="M520 673l-13 -51c-42 28 -90 44 -140 44c-132 0 -221 -122 -241 -241h345l-9 -46h-341c-1 -10 -1 -19 -1 -29c0 -8 0 -16 1 -24h334l-9 -46h-321c16 -123 99 -242 234 -242c53 0 104 15 148 45v-61c-51 -23 -88 -34 -144 -34c-177 0 -280 124 -302 292h-53l9 46h40
c-1 8 -1 17 -1 25c0 9 0 19 1 28h-49l9 46h44c22 156 134 291 301 291c55 0 112 -12 158 -43z" />
    <glyph glyph-name="uni00A0" unicode="&#xa0;" horiz-adv-x="278" 
 />
    <glyph glyph-name="infinity" unicode="&#x221e;" horiz-adv-x="787" 
d="M734 294c0 -87 -60 -161 -158 -161c-82 0 -145 53 -183 114h-2c-43 -64 -106 -114 -179 -114c-100 0 -161 67 -161 157c0 93 61 161 158 161c87 0 146 -58 182 -114h2c34 50 94 114 179 114c94 0 162 -62 162 -157zM676 293c0 58 -32 107 -104 107
c-65 0 -112 -45 -153 -108c41 -69 95 -108 152 -108c74 0 105 51 105 109zM365 292c-38 64 -97 108 -153 108c-72 0 -104 -51 -104 -110c0 -63 45 -107 104 -107c64 0 116 51 153 109z" />
    <glyph glyph-name="partialdiff" unicode="&#x2202;" horiz-adv-x="579" 
d="M527 491c0 -58 -9 -126 -26 -194c-37 -144 -128 -307 -278 -307c-102 0 -172 73 -172 185c0 195 135 324 266 324c74 0 120 -37 139 -77h2c3 21 5 44 5 73c0 118 -53 179 -144 179c-31 0 -68 -10 -96 -27c-7 15 -12 31 -19 47c24 15 75 32 123 32c120 0 200 -81 200 -235
zM448 355c-14 51 -56 93 -127 93c-109 0 -206 -121 -206 -275c0 -80 44 -131 110 -131c102 0 186 123 223 313z" />
    <glyph glyph-name="summation" unicode="&#x2211;" horiz-adv-x="634" 
d="M601 -230h-579v28c115 147 229 294 344 441c-107 142 -213 285 -319 427v34h528v-54h-441c101 -136 202 -270 303 -406c-107 -139 -215 -277 -323 -416h487v-54z" />
    <glyph glyph-name="product" unicode="&#x220f;" horiz-adv-x="722" 
d="M634 -230h-65v874h-415v-874h-65v930h545v-930z" />
    <glyph glyph-name="pi" unicode="&#x3c0;" horiz-adv-x="658" 
d="M592 52l14 -46c-15 -8 -37 -13 -61 -13c-80 0 -114 55 -114 127v328h-205v-317c0 -53 -5 -99 -14 -131h-65c11 38 15 88 15 133v315c-31 0 -77 -10 -105 -23c-6 16 -12 32 -19 48c26 13 77 27 139 27h428v-52h-110v-322c0 -49 19 -81 65 -81c10 0 22 3 32 7z" />
    <glyph glyph-name="integral" unicode="&#x222b;" horiz-adv-x="493" 
d="M410 686c-9 4 -28 9 -47 9c-58 0 -87 -38 -87 -103v-659c0 -101 -56 -159 -145 -159c-22 0 -53 5 -67 11c5 17 9 34 14 51c12 -5 27 -9 48 -9c57 0 86 36 86 103v661c0 97 54 157 147 157c25 0 54 -6 66 -12c-5 -17 -10 -34 -15 -50z" />
    <glyph glyph-name="Omega" unicode="&#x2126;" horiz-adv-x="713" 
d="M659 0h-223v54c62 53 157 148 157 323c0 158 -82 279 -236 279c-144 0 -242 -116 -242 -279c0 -170 90 -265 159 -323v-54h-224v54h156c-65 52 -158 155 -158 331c0 187 126 327 309 327c192 0 302 -134 302 -326c0 -159 -85 -273 -158 -332h158v-54z" />
    <glyph glyph-name="radical" unicode="&#x221a;" horiz-adv-x="518" 
d="M521 728c-67 -247 -133 -493 -200 -740h-53c-49 117 -96 234 -145 350c-18 -10 -36 -21 -54 -32c-8 14 -15 27 -22 41c35 21 72 42 107 63c47 -111 93 -223 139 -334c58 217 116 435 175 652h53z" />
    <glyph glyph-name="Delta" unicode="&#x2206;" horiz-adv-x="612" 
d="M592 0h-564v35c82 222 164 443 246 665h75c81 -222 162 -443 243 -665v-35zM515 56c-63 173 -126 347 -189 521c-8 23 -11 40 -16 55h-2c-4 -14 -9 -35 -16 -54c-63 -174 -127 -348 -190 -522h413z" />
    <glyph glyph-name="lozenge" unicode="&#x25ca;" horiz-adv-x="563" 
d="M504 350c-70 -117 -139 -233 -208 -350h-36c-69 116 -138 233 -207 349l207 351h36c69 -117 138 -233 208 -350zM444 350c-55 93 -111 186 -166 280c-55 -94 -111 -187 -167 -280c56 -94 111 -187 166 -280c56 93 112 186 167 280z" />
    <glyph glyph-name="notequal" unicode="&#x2260;" horiz-adv-x="660" 
d="M548 165h-259l-68 -142h-48l69 142h-129v46h152l78 162h-230v46h252l68 142h48l-69 -142h136v-46h-158l-78 -162h236v-46z" />
    <glyph glyph-name="lessequal" unicode="&#x2264;" horiz-adv-x="660" 
d="M548 0h-435v46h435v-46zM548 129l-435 207v22l435 206v-52l-353 -164v-2l353 -165v-52z" />
    <glyph glyph-name="greaterequal" unicode="&#x2265;" horiz-adv-x="660" 
d="M548 0h-435v46h435v-46zM548 336l-435 -207v52l353 164v2l-353 165v52l435 -206v-22z" />
    <glyph glyph-name="approxequal" unicode="&#x2248;" horiz-adv-x="660" 
d="M560 420c-29 -42 -69 -81 -131 -81c-39 0 -76 15 -106 34c-28 17 -60 34 -93 34c-37 0 -72 -27 -97 -66l-32 32c30 43 67 80 130 80c41 0 78 -15 106 -33c32 -20 61 -35 93 -35c37 0 72 27 98 66zM560 212c-29 -41 -69 -80 -131 -80c-39 0 -76 15 -106 34
c-28 17 -60 34 -93 34c-37 0 -72 -27 -97 -67l-32 33c30 43 67 80 130 80c41 0 78 -16 106 -34c32 -20 61 -34 93 -34c37 0 72 26 98 66z" />
    <glyph glyph-name="uni02C9" unicode="&#x2c9;" horiz-adv-x="333" 
d="M19 653h295v-54h-295v54z" />
    <glyph glyph-name="uni2215" unicode="&#x2215;" horiz-adv-x="167" 
d="M324 728h54l-533 -754h-57z" />
    <glyph glyph-name="uni2219" unicode="&#x2219;" horiz-adv-x="278" 
d="M91 399h96v-95h-96v95z" />
    </font>
</defs>
</svg>
